<svg width="24" height="24" viewBox="0 0 24 24" fill="none" xmlns="http://www.w3.org/2000/svg">
<g clip-path="url(#clip0_2398_5921)">
<path d="M12.0002 17.1698C11.3431 17.1709 10.6923 17.0426 10.0849 16.7921C9.47746 16.5416 8.92538 16.1738 8.46019 15.7098L0.290185 7.53978C0.101882 7.35147 -0.00390625 7.09608 -0.00390625 6.82978C-0.00390625 6.56347 0.101882 6.30808 0.290185 6.11978C0.478489 5.93147 0.733884 5.82568 1.00019 5.82568C1.26649 5.82568 1.52188 5.93147 1.71019 6.11978L9.88019 14.2898C10.4427 14.8516 11.2052 15.1671 12.0002 15.1671C12.7952 15.1671 13.5577 14.8516 14.1202 14.2898L22.2902 6.11978C22.4785 5.93147 22.7339 5.82568 23.0002 5.82568C23.2665 5.82568 23.5219 5.93147 23.7102 6.11978C23.8985 6.30808 24.0043 6.56347 24.0043 6.82978C24.0043 7.09608 23.8985 7.35147 23.7102 7.53978L15.5402 15.7098C15.075 16.1738 14.5229 16.5416 13.9155 16.7921C13.3081 17.0426 12.6572 17.1709 12.0002 17.1698Z" fill="currentColor"/>
</g>
<defs>
<clipPath id="clip0_2398_5921">
<rect width="24" height="24" fill="white"/>
</clipPath>
</defs>
</svg>
