<svg width="24" height="24" viewBox="0 0 24 24" fill="none" xmlns="http://www.w3.org/2000/svg">
<g clip-path="url(#clip0_2391_6575)">
<path d="M7 22H5C4.20435 22 3.44129 21.6839 2.87868 21.1213C2.31607 20.5587 2 19.7956 2 19V5C2 4.20435 2.31607 3.44129 2.87868 2.87868C3.44129 2.31607 4.20435 2 5 2H7C7.26522 2 7.51957 1.89464 7.70711 1.70711C7.89464 1.51957 8 1.26522 8 1C8 0.734784 7.89464 0.48043 7.70711 0.292893C7.51957 0.105357 7.26522 0 7 0L5 0C3.67441 0.00158786 2.40356 0.528882 1.46622 1.46622C0.528882 2.40356 0.00158786 3.67441 0 5L0 19C0.00158786 20.3256 0.528882 21.5964 1.46622 22.5338C2.40356 23.4711 3.67441 23.9984 5 24H7C7.26522 24 7.51957 23.8946 7.70711 23.7071C7.89464 23.5196 8 23.2652 8 23C8 22.7348 7.89464 22.4804 7.70711 22.2929C7.51957 22.1054 7.26522 22 7 22Z" fill="currentColor"/>
<path d="M23.0001 11.0001L7.22306 11.0321C7.31077 10.8692 7.42046 10.7191 7.54906 10.5861L11.4281 6.70708C11.5236 6.61483 11.5998 6.50449 11.6522 6.38249C11.7046 6.26048 11.7322 6.12926 11.7333 5.99648C11.7345 5.8637 11.7092 5.73202 11.6589 5.60913C11.6086 5.48623 11.5343 5.37458 11.4405 5.28069C11.3466 5.18679 11.2349 5.11254 11.112 5.06226C10.9891 5.01198 10.8574 4.98668 10.7247 4.98783C10.5919 4.98898 10.4607 5.01657 10.3387 5.06898C10.2167 5.12139 10.1063 5.19757 10.0141 5.29308L6.13306 9.17208C5.38318 9.92219 4.96191 10.9394 4.96191 12.0001C4.96191 13.0607 5.38318 14.078 6.13306 14.8281L10.0121 18.7071C10.1043 18.8026 10.2147 18.8788 10.3367 18.9312C10.4587 18.9836 10.5899 19.0112 10.7227 19.0123C10.8554 19.0135 10.9871 18.9882 11.11 18.9379C11.2329 18.8876 11.3446 18.8134 11.4385 18.7195C11.5323 18.6256 11.6066 18.5139 11.6569 18.391C11.7072 18.2681 11.7325 18.1365 11.7313 18.0037C11.7302 17.8709 11.7026 17.7397 11.6502 17.6177C11.5978 17.4957 11.5216 17.3853 11.4261 17.2931L7.54706 13.4141C7.43514 13.2988 7.33745 13.1706 7.25606 13.0321L23.0001 13.0001C23.2653 13.0001 23.5196 12.8947 23.7072 12.7072C23.8947 12.5197 24.0001 12.2653 24.0001 12.0001C24.0001 11.7349 23.8947 11.4805 23.7072 11.293C23.5196 11.1054 23.2653 11.0001 23.0001 11.0001Z" fill="currentColor"/>
</g>
<defs>
<clipPath id="clip0_2391_6575">
<rect width="24" height="24" fill="white"/>
</clipPath>
</defs>
</svg>
