<svg width="24" height="24" viewBox="0 0 24 24" fill="none" xmlns="http://www.w3.org/2000/svg">
<path d="M19 1H5C3.67441 1.00166 2.40356 1.55292 1.46622 2.53287C0.528882 3.51281 0.00158786 4.84142 0 6.22727L0 14.5909C0.00158786 15.9768 0.528882 17.3054 1.46622 18.2853C2.40356 19.2653 3.67441 19.8165 5 19.8182H11V21.9091H7C6.73478 21.9091 6.48043 22.0192 6.29289 22.2153C6.10536 22.4114 6 22.6773 6 22.9545C6 23.2318 6.10536 23.4977 6.29289 23.6938C6.48043 23.8899 6.73478 24 7 24H17C17.2652 24 17.5196 23.8899 17.7071 23.6938C17.8946 23.4977 18 23.2318 18 22.9545C18 22.6773 17.8946 22.4114 17.7071 22.2153C17.5196 22.0192 17.2652 21.9091 17 21.9091H13V19.8182H19C20.3256 19.8165 21.5964 19.2653 22.5338 18.2853C23.4711 17.3054 23.9984 15.9768 24 14.5909V6.22727C23.9984 4.84142 23.4711 3.51281 22.5338 2.53287C21.5964 1.55292 20.3256 1.00166 19 1ZM22 14.5909C22 15.4227 21.6839 16.2205 21.1213 16.8087C20.5587 17.3968 19.7956 17.7273 19 17.7273H5C4.20435 17.7273 3.44129 17.3968 2.87868 16.8087C2.31607 16.2205 2 15.4227 2 14.5909V6.22727C2 5.39546 2.31607 4.59771 2.87868 4.00953C3.44129 3.42135 4.20435 3.09091 5 3.09091H19C19.7956 3.09091 20.5587 3.42135 21.1213 4.00953C21.6839 4.59771 22 5.39546 22 6.22727V14.5909ZM20 10.4091C20 10.6864 19.8946 10.9523 19.7071 11.1483C19.5196 11.3444 19.2652 11.4545 19 11.4545H16.035L14.335 14.1257C14.2434 14.2693 14.1192 14.3869 13.9735 14.4681C13.8278 14.5493 13.6651 14.5915 13.5 14.5909C13.479 14.5909 13.458 14.5909 13.438 14.5909C13.263 14.5796 13.094 14.5205 12.9478 14.4194C12.8016 14.3183 12.6834 14.1788 12.605 14.0149L10.376 9.35109L9.332 10.9893C9.24065 11.1325 9.11692 11.2498 8.97178 11.331C8.82665 11.4121 8.66459 11.4546 8.5 11.4545H5C4.73478 11.4545 4.48043 11.3444 4.29289 11.1483C4.10536 10.9523 4 10.6864 4 10.4091C4 10.1318 4.10536 9.8659 4.29289 9.66984C4.48043 9.47378 4.73478 9.36364 5 9.36364H7.965L9.665 6.6925C9.76123 6.53836 9.89516 6.41394 10.0529 6.33214C10.2106 6.25033 10.3864 6.21413 10.562 6.22727C10.737 6.23854 10.906 6.29769 11.0522 6.39879C11.1984 6.49989 11.3166 6.6394 11.395 6.80332L13.624 11.465L14.668 9.82677C14.7596 9.68402 14.8834 9.56707 15.0285 9.48629C15.1737 9.40551 15.3356 9.36338 15.5 9.36364H19C19.2652 9.36364 19.5196 9.47378 19.7071 9.66984C19.8946 9.8659 20 10.1318 20 10.4091Z" fill="currentColor"/>
</svg>
